<svg width="10" height="9" viewBox="0 0 10 9" fill="none" xmlns="http://www.w3.org/2000/svg">
<path d="M8.808 3.92C8.68 3.792 8.52 3.728 8.328 3.728C8.14667 3.728 7.992 3.792 7.864 3.92L5.672 6.128V1.072C5.672 0.890666 5.60267 0.735999 5.464 0.608C5.336 0.469333 5.18133 0.4 5 0.4C4.81867 0.4 4.65867 0.469333 4.52 0.608C4.392 0.735999 4.328 0.890666 4.328 1.072V6.128L2.136 3.92C2.008 3.792 1.848 3.728 1.656 3.728C1.47467 3.728 1.31467 3.79733 1.176 3.936C1.048 4.064 0.984 4.224 0.984 4.416C0.994667 4.59733 1.064 4.752 1.192 4.88L4.52 8.208C4.584 8.272 4.65867 8.32 4.744 8.352C4.91467 8.42667 5.08533 8.42667 5.256 8.352C5.34133 8.32 5.416 8.272 5.48 8.208L8.808 4.88C8.94667 4.752 9.016 4.592 9.016 4.4C9.016 4.208 8.94667 4.048 8.808 3.92Z" fill="#01002C"/>
</svg>
