<svg width="22" height="17" viewBox="0 0 22 17" fill="none" xmlns="http://www.w3.org/2000/svg">
<path d="M18.008 0.607999H3.992C3.448 0.607999 2.944 0.743999 2.48 1.016C2.032 1.288 1.672 1.656 1.4 2.12C1.128 2.568 0.992 3.064 0.992 3.608V13.592C0.992 14.136 1.128 14.64 1.4 15.104C1.672 15.552 2.032 15.912 2.48 16.184C2.944 16.456 3.448 16.592 3.992 16.592H18.008C18.552 16.592 19.048 16.456 19.496 16.184C19.96 15.912 20.328 15.552 20.6 15.104C20.872 14.64 21.008 14.136 21.008 13.592V3.608C21.008 3.064 20.872 2.568 20.6 2.12C20.328 1.656 19.96 1.288 19.496 1.016C19.048 0.743999 18.552 0.607999 18.008 0.607999ZM17.6 2.6L11.72 8.48C11.528 8.688 11.288 8.792 11 8.792C10.712 8.792 10.472 8.688 10.28 8.48L4.4 2.6H17.6ZM18.992 13.592C18.992 13.864 18.896 14.104 18.704 14.312C18.512 14.504 18.28 14.6 18.008 14.6H3.992C3.72 14.6 3.488 14.504 3.296 14.312C3.104 14.104 3.008 13.864 3.008 13.592V4.016L8.888 9.896C9.272 10.28 9.72 10.536 10.232 10.664C10.744 10.792 11.256 10.792 11.768 10.664C12.28 10.536 12.728 10.28 13.112 9.896L18.992 4.016V13.592Z" fill="#D9DADC"/>
</svg>
