<svg width="22" height="21" viewBox="0 0 22 21" fill="none" xmlns="http://www.w3.org/2000/svg">
<path opacity="0.2" d="M14.72 6.88C14.528 6.672 14.288 6.568 14 6.568C13.712 6.568 13.472 6.672 13.28 6.88L11 9.184L8.72 6.88C8.528 6.688 8.288 6.592 8 6.592C7.712 6.592 7.472 6.688 7.28 6.88C7.088 7.072 6.992 7.312 6.992 7.6C6.992 7.888 7.088 8.128 7.28 8.32L9.584 10.6L7.28 12.88C7.072 13.072 6.968 13.312 6.968 13.6C6.968 13.888 7.064 14.136 7.256 14.344C7.464 14.536 7.712 14.632 8 14.632C8.288 14.632 8.528 14.528 8.72 14.32L11 12.016L13.28 14.32C13.472 14.528 13.712 14.632 14 14.632C14.288 14.632 14.528 14.536 14.72 14.344C14.928 14.136 15.032 13.888 15.032 13.6C15.032 13.312 14.928 13.072 14.72 12.88L12.416 10.6L14.72 8.32C14.928 8.128 15.032 7.888 15.032 7.6C15.032 7.312 14.928 7.072 14.72 6.88ZM18.08 3.52C16.8 2.24 15.288 1.368 13.544 0.904C11.848 0.472 10.152 0.472 8.456 0.904C6.712 1.368 5.2 2.24 3.92 3.52C2.64 4.8 1.768 6.312 1.304 8.056C0.872 9.752 0.872 11.448 1.304 13.144C1.768 14.888 2.64 16.4 3.92 17.68C5.2 18.96 6.712 19.832 8.456 20.296C10.152 20.728 11.848 20.728 13.544 20.296C15.288 19.832 16.8 18.96 18.08 17.68C19.36 16.4 20.232 14.888 20.696 13.144C21.128 11.448 21.128 9.752 20.696 8.056C20.232 6.312 19.36 4.8 18.08 3.52ZM16.664 16.264C15.784 17.16 14.752 17.808 13.568 18.208C12.4 18.592 11.2 18.712 9.968 18.568C8.752 18.408 7.616 17.984 6.56 17.296C5.52 16.592 4.688 15.704 4.064 14.632C3.456 13.56 3.104 12.408 3.008 11.176C2.928 9.944 3.128 8.752 3.608 7.6C4.088 6.432 4.792 5.44 5.72 4.624C6.648 3.808 7.704 3.24 8.888 2.92C10.088 2.584 11.304 2.536 12.536 2.776C13.768 3.016 14.872 3.52 15.848 4.288C16.824 5.04 17.592 5.968 18.152 7.072C18.712 8.176 18.992 9.352 18.992 10.6C18.992 11.656 18.792 12.68 18.392 13.672C17.992 14.648 17.416 15.512 16.664 16.264Z" fill="#01002C"/>
</svg>
