<svg width="329" height="259" viewBox="0 0 329 259" fill="none" xmlns="http://www.w3.org/2000/svg">
<path d="M123.819 1.66962C123.819 63.863 123.819 125.987 123.819 188.18C123.819 189.363 123.819 189.363 124.998 189.363C134.431 189.363 143.795 189.363 153.228 189.363C154.407 189.363 154.407 189.363 154.407 188.18C154.407 125.987 154.407 63.7239 154.407 1.53049C154.407 1.04351 154.407 0.55654 154.407 0H123.749C123.819 0.55654 123.819 1.11308 123.819 1.66962ZM150.87 253.435C148.511 253.435 146.084 253.435 143.725 253.435C142.546 253.435 142.546 253.435 142.546 252.252C142.546 238.408 142.546 224.564 142.546 210.72C142.546 210.024 142.338 209.816 141.645 209.816C140.535 209.885 139.356 209.885 138.246 209.816C137.483 209.746 137.344 210.024 137.344 210.79C137.344 218.512 137.344 226.164 137.344 233.886C137.344 241.608 137.344 249.33 137.344 257.052C137.344 257.539 137.344 257.956 138.038 257.956C142.338 257.956 146.639 257.956 150.939 257.956C151.494 257.956 151.633 257.748 151.633 257.191C151.633 256.148 151.563 255.104 151.633 254.13C151.633 253.574 151.425 253.435 150.87 253.435ZM176.88 189.363C184.857 189.432 191.377 182.963 191.446 174.962C191.515 166.962 185.065 160.423 177.158 160.353C169.112 160.284 162.592 166.753 162.522 174.823C162.522 182.754 168.973 189.293 176.88 189.363ZM106.825 209.607C105.715 209.607 104.536 209.677 103.426 209.607C102.802 209.607 102.594 209.816 102.594 210.442C102.594 216.842 102.594 223.173 102.594 229.573C102.594 230.547 102.594 231.521 102.663 232.495C103.08 237.643 103.496 242.791 103.912 247.939C103.912 248.147 103.912 248.356 103.843 248.565L103.565 248.634C103.426 248.356 103.288 248.147 103.218 247.869C102.733 246.2 102.317 244.46 101.901 242.791C99.0567 232.077 96.2129 221.364 93.369 210.581C93.161 209.816 92.8835 209.537 92.0512 209.537C90.3865 209.607 88.7912 209.607 87.1265 209.537C86.4329 209.537 86.2248 209.677 86.2248 210.442C86.2248 221.434 86.2248 232.356 86.2248 243.347C86.2248 247.869 86.2248 252.391 86.2248 256.843C86.2248 257.539 86.4329 257.748 87.1265 257.748C88.2363 257.678 89.2767 257.678 90.3865 257.748C91.0801 257.817 91.2882 257.47 91.2882 256.843C91.2882 251.556 91.2882 246.339 91.2882 241.052C91.2882 239.173 91.3576 237.295 91.2189 235.347C90.8027 229.851 90.3865 224.286 89.901 218.79C89.901 218.512 89.901 218.303 89.901 218.025C90.0397 218.025 90.1091 217.955 90.2478 217.955C90.3171 218.233 90.4559 218.512 90.5252 218.72C91.4269 222.199 92.3286 225.677 93.2997 229.156C95.7273 238.408 98.155 247.591 100.513 256.843C100.652 257.47 100.929 257.748 101.554 257.678C103.288 257.609 105.022 257.609 106.686 257.678C107.241 257.678 107.449 257.47 107.449 256.913C107.449 241.33 107.449 225.816 107.449 210.233C107.588 209.746 107.38 209.607 106.825 209.607ZM67.1504 174.267C67.1504 166.197 60.6998 159.727 52.6539 159.727C44.6773 159.727 38.2267 166.266 38.2267 174.267C38.2267 182.197 44.6773 188.737 52.6539 188.737C60.6998 188.737 67.1504 182.267 67.1504 174.267ZM176.325 209.885C172.164 209.885 168.002 209.885 163.84 209.885C163.077 209.885 162.869 210.094 162.869 210.859C162.869 218.651 162.869 226.442 162.869 234.234C162.869 242.026 162.869 249.817 162.869 257.609C162.869 258.096 162.8 258.513 163.563 258.513C167.863 258.513 172.233 258.513 176.533 258.513C177.088 258.513 177.227 258.304 177.158 257.817C177.158 256.774 177.088 255.73 177.158 254.756C177.227 254.061 176.95 253.922 176.325 253.922C173.828 253.922 171.262 253.922 168.765 253.922C168.002 253.922 167.863 253.713 167.863 252.948C167.863 247.034 167.863 241.121 167.863 235.277C167.863 234.651 168.002 234.373 168.696 234.443C170.846 234.512 172.996 234.443 175.216 234.443C175.978 234.443 176.187 234.234 176.117 233.469C176.048 232.634 176.048 231.73 176.117 230.895C176.187 230.269 175.909 230.06 175.285 230.06C173.135 230.06 170.984 230.06 168.765 230.06C168.002 230.06 167.794 229.851 167.863 229.156C167.863 224.564 167.933 219.973 167.863 215.381C167.863 214.616 168.071 214.477 168.834 214.477C171.401 214.546 173.967 214.477 176.464 214.477C177.088 214.477 177.296 214.268 177.296 213.642C177.227 212.668 177.227 211.694 177.296 210.72C177.296 210.024 177.019 209.885 176.325 209.885ZM76.0287 246.826C76.0287 234.79 76.0287 222.755 76.0287 210.79C76.0287 210.094 75.8206 209.885 75.127 209.885C74.0866 209.955 73.0462 209.955 71.9364 209.885C71.1734 209.816 70.9653 210.094 70.9653 210.859C70.9653 216.912 70.9653 222.964 71.0347 228.947C71.0347 229.712 70.8266 229.921 70.0636 229.921C67.7053 229.851 65.347 229.921 62.9888 229.921C61.879 229.921 61.879 229.921 61.879 228.877C61.879 222.894 61.879 216.842 61.879 210.859C61.879 210.094 61.6709 209.885 60.9079 209.955C59.8675 210.024 58.8271 210.024 57.856 209.955C57.0237 209.885 56.8156 210.164 56.8156 210.998C56.8156 226.373 56.8156 241.747 56.8156 257.052C56.8156 257.191 56.8156 257.33 56.8156 257.47C56.7462 257.957 56.9543 258.096 57.4398 258.096C58.5496 258.096 59.6594 258.026 60.7692 258.096C61.6015 258.165 61.8096 257.887 61.8096 257.052C61.8096 249.748 61.8096 242.443 61.7402 235.069C61.7402 234.443 61.879 234.164 62.5726 234.234C64.0985 234.304 65.6938 234.234 67.2198 234.234H70.896V234.999C70.896 242.373 70.896 249.748 70.896 257.122C70.896 257.887 71.104 258.096 71.7977 258.096C72.9074 258.026 73.9479 258.026 75.0576 258.096C75.6819 258.096 75.89 257.956 75.89 257.261C76.0287 253.713 76.0287 250.304 76.0287 246.826ZM105.022 168.284C106.201 165.71 107.241 163.066 107.241 160.075C107.241 107.064 107.241 53.9844 107.241 0.973946C107.241 0.626108 107.172 0.27827 107.172 0H75.5432C75.5432 0.27827 75.5432 0.486973 75.5432 0.765243C75.5432 26.0878 75.5432 51.48 75.5432 76.8026C75.5432 113.952 75.5432 151.17 75.5432 188.319C75.5432 189.154 75.7513 189.432 76.5836 189.293C78.2483 189.015 79.9823 188.806 81.647 188.458C85.9474 187.624 89.8316 185.745 93.2997 183.032C98.3631 179.136 102.386 174.197 105.022 168.284ZM229.942 188.319C229.942 125.917 229.942 63.5152 229.942 1.18265C229.942 0.765243 229.872 0.417405 229.872 0H199.561C199.561 0.55654 199.561 1.11308 199.561 1.66962C199.561 63.863 199.561 126.056 199.561 188.25C199.561 189.085 199.7 189.363 200.602 189.363C210.035 189.363 219.468 189.363 228.901 189.363C229.664 189.363 229.942 189.154 229.942 188.319ZM277.593 180.528C277.593 157.571 277.593 134.683 277.593 111.725C277.593 107.343 276.761 103.03 275.373 98.9251C273.431 93.2901 270.31 88.4204 266.218 84.1767C262.125 79.9331 257.27 76.8721 251.444 75.8286C251.097 75.7591 250.75 75.6199 250.403 75.5504C250.611 75.3417 250.819 75.2721 250.958 75.2721C255.259 74.7156 259.004 72.9068 262.472 70.4024C266.564 67.3414 269.755 63.4456 272.321 59.0629C274.957 54.4714 276.622 49.5321 277.246 44.3145C277.593 41.5318 277.524 38.6796 277.593 35.8969C277.662 31.5141 276.83 27.2705 275.373 23.166C273.293 17.1136 269.894 11.9656 265.316 7.5133C262.403 4.66103 259.143 2.43486 255.328 1.04351C254.357 0.695676 253.386 0.417405 252.415 0.0695676H245.895C245.895 0.55654 245.895 1.04351 245.895 1.46092C245.895 63.7934 245.895 126.126 245.895 188.458C245.895 189.154 246.103 189.432 246.796 189.432C256.785 189.432 266.703 189.432 276.691 189.432C277.385 189.432 277.524 189.224 277.524 188.528C277.593 185.815 277.593 183.171 277.593 180.528ZM277.454 216.842C277.454 212.738 274.333 210.024 270.796 209.885C268.853 209.816 266.842 209.816 264.9 209.885C261.085 210.024 258.241 213.016 258.241 216.842C258.241 222.547 258.241 228.251 258.241 233.956C258.241 239.66 258.31 245.365 258.241 251.069C258.172 255.243 261.64 257.956 265.039 258.026C266.911 258.026 268.784 258.026 270.587 258.026C273.778 258.026 277.454 255.522 277.385 251.069C277.385 239.66 277.385 228.251 277.454 216.842ZM272.391 251.069C272.391 252.6 271.628 253.365 270.102 253.435C268.576 253.435 267.119 253.435 265.593 253.435C263.998 253.435 263.235 252.669 263.235 251.069C263.235 245.365 263.235 239.66 263.235 233.956C263.235 228.251 263.235 222.547 263.235 216.842C263.235 215.242 263.998 214.477 265.524 214.477C267.05 214.477 268.507 214.477 270.033 214.477C271.559 214.477 272.321 215.312 272.321 216.773C272.391 228.251 272.391 239.66 272.391 251.069ZM298.124 209.885C296.737 209.816 295.28 209.816 293.893 209.885C290.286 210.024 287.304 212.946 287.234 216.355C287.234 218.442 287.234 220.46 287.234 222.547C287.304 225.329 288.205 227.834 290.078 229.921C292.644 232.773 295.141 235.695 297.777 238.547C299.164 240.078 299.789 241.747 299.789 243.765C299.789 246.408 299.789 249.052 299.789 251.695C299.789 253.017 299.095 253.782 297.777 253.852C296.598 253.922 295.419 253.922 294.309 253.852C292.991 253.782 292.228 253.017 292.228 251.626C292.228 249.539 292.228 247.382 292.228 245.295C292.228 244.6 292.02 244.46 291.396 244.46C290.286 244.53 289.107 244.53 287.997 244.46C287.373 244.46 287.234 244.669 287.234 245.226C287.234 247.382 287.234 249.539 287.234 251.626C287.234 255.313 290.147 258.304 293.824 258.443C295.28 258.513 296.737 258.513 298.263 258.443C301.939 258.304 304.852 255.313 304.852 251.626C304.852 250.234 304.852 248.843 304.852 247.452C304.852 246.13 304.852 244.808 304.852 243.556C304.852 240.634 303.95 238.06 301.939 235.904C299.234 232.912 296.598 229.851 293.962 226.86C292.852 225.608 292.298 224.147 292.298 222.407C292.298 220.529 292.298 218.651 292.298 216.703C292.298 215.381 293.061 214.546 294.378 214.477C295.488 214.407 296.667 214.407 297.777 214.477C299.095 214.546 299.858 215.381 299.858 216.703C299.858 218.164 299.858 219.625 299.858 221.016C299.858 221.642 300.066 221.851 300.69 221.781C301.869 221.712 303.049 221.781 304.158 221.781C304.713 221.781 304.852 221.573 304.852 221.016C304.852 219.625 304.783 218.164 304.852 216.773C304.991 213.085 301.8 210.024 298.124 209.885ZM17.3489 238.478C17.3489 229.225 17.3489 219.973 17.3489 210.651C17.3489 210.164 17.3489 209.816 16.6553 209.816C13.0485 209.816 9.51111 209.816 5.90432 209.816C5.41879 209.816 5.2107 210.024 5.2107 210.511C5.2107 211.555 5.28006 212.598 5.2107 213.712C5.2107 214.338 5.41879 214.477 5.97368 214.477C7.3609 214.477 8.74813 214.477 10.1354 214.477C10.829 214.477 11.5226 214.477 12.2162 214.477C12.2162 214.755 12.2856 214.964 12.2856 215.103C12.2856 227.208 12.2856 239.243 12.2856 251.348C12.2856 252.669 11.5226 253.435 10.2047 253.435C9.1643 253.504 8.12388 253.435 7.15282 253.435C5.69623 253.435 4.93326 252.6 4.93326 251.139C4.93326 249.052 4.93326 246.965 4.93326 244.878C4.93326 244.6 4.65581 244.182 4.51709 244.182C3.0605 244.113 1.53455 244.182 0.00859596 244.182C0.00859596 246.547 0.0779574 248.843 0.00859596 251.139C-0.199488 255.174 3.4073 258.026 6.80601 258.026C8.05452 258.026 9.37239 258.026 10.6209 258.026C13.6034 258.026 17.4877 255.591 17.4183 251.139C17.2796 246.895 17.3489 242.721 17.3489 238.478ZM328.157 254.409C325.591 254.409 323.025 254.409 320.528 254.409C319.834 254.409 319.626 254.269 319.626 253.504C319.626 247.66 319.626 241.817 319.626 235.973C319.626 235.208 319.903 235.069 320.597 235.069C322.747 235.138 324.897 235.069 326.978 235.069C327.672 235.069 327.88 234.86 327.88 234.164C327.811 233.33 327.811 232.425 327.88 231.59C327.949 230.964 327.672 230.756 327.048 230.825C324.828 230.825 322.678 230.825 320.458 230.825C319.834 230.825 319.626 230.616 319.626 229.99C319.626 225.399 319.626 220.807 319.626 216.216C319.626 215.52 319.834 215.381 320.458 215.381C322.955 215.381 325.522 215.381 328.019 215.381C328.712 215.381 329.059 215.242 328.99 214.407C328.92 213.503 328.92 212.598 328.99 211.764C329.059 210.998 328.782 210.79 328.019 210.79C323.857 210.859 319.695 210.859 315.534 210.79C314.771 210.79 314.563 210.998 314.563 211.764C314.563 227.208 314.563 242.582 314.563 258.026C314.563 258.304 314.632 258.652 314.632 258.93H328.782C328.782 257.678 328.782 256.426 328.851 255.174C328.99 254.617 328.782 254.409 328.157 254.409ZM199.284 209.885C197.411 209.816 195.538 209.816 193.596 209.885C189.781 210.024 186.868 213.016 186.868 216.842C186.868 228.599 186.868 240.356 186.868 252.182C186.868 254.965 188.186 256.913 190.614 258.235C191.238 258.583 191.862 258.722 192.556 259H200.394C200.602 258.93 200.74 258.861 200.949 258.791C204.347 257.748 206.081 255.382 206.081 251.765C206.081 240.147 206.081 228.529 206.081 216.842C206.012 213.016 203.099 210.024 199.284 209.885ZM201.018 251.765C201.018 253.643 200.324 254.339 198.452 254.339C197.064 254.339 195.608 254.339 194.221 254.339C192.695 254.339 191.932 253.574 191.932 252.043C191.932 240.356 191.932 228.599 191.932 216.912C191.932 215.451 192.764 214.616 194.221 214.616C195.746 214.616 197.203 214.616 198.729 214.616C200.255 214.616 201.087 215.451 201.087 216.981C201.087 222.825 201.087 228.669 201.087 234.512C201.018 240.217 201.018 245.991 201.018 251.765ZM40.3769 209.885C38.3655 209.816 36.354 209.816 34.4119 209.885C30.8744 210.024 27.7532 212.946 27.8225 216.842C27.9612 222.547 27.8225 228.182 27.8225 233.886C27.8225 239.591 27.8919 245.365 27.8225 251.069C27.7532 255.174 31.1519 257.887 34.4812 257.956C36.4233 258.026 38.3655 258.026 40.3076 257.956C43.4982 257.887 47.0356 255.313 46.9663 251.069C46.8969 239.66 46.8969 228.251 46.9663 216.842C47.0356 212.946 43.9837 210.094 40.3769 209.885ZM41.9722 251C41.9722 252.669 41.2093 253.435 39.5446 253.435C38.088 253.435 36.6314 253.435 35.2442 253.435C33.6489 253.435 32.8859 252.669 32.8859 251.069C32.8859 239.66 32.8859 228.182 32.8859 216.773C32.8859 215.242 33.6489 214.477 35.1748 214.477C36.7008 214.477 38.1574 214.477 39.6833 214.477C41.2093 214.477 41.9722 215.312 41.9722 216.773C41.9722 222.477 41.9722 228.251 41.9722 233.956C41.9722 239.66 41.9722 245.365 41.9722 251ZM242.496 232.077C242.565 231.938 242.565 231.938 242.565 231.938C242.635 231.869 242.704 231.799 242.774 231.799C245.201 230.477 246.242 228.321 246.242 225.608C246.172 222.547 246.242 219.486 246.242 216.425C246.242 212.598 243.398 209.746 239.583 209.677C236.531 209.677 233.479 209.677 230.427 209.677C229.734 209.677 229.525 209.885 229.525 210.581C229.525 226.164 229.525 241.747 229.525 257.33C229.525 257.47 229.525 257.539 229.525 257.678C229.456 258.165 229.664 258.374 230.219 258.374C231.19 258.374 232.161 258.304 233.132 258.374C233.895 258.443 234.173 258.165 234.173 257.33C234.173 249.956 234.173 242.512 234.173 235.138C234.173 234.999 234.103 234.79 234.173 234.651C234.242 234.512 234.45 234.234 234.589 234.234C236.184 234.234 237.779 234.164 239.305 234.304C240.623 234.443 241.317 235.208 241.594 236.53C241.664 237.086 241.733 237.643 241.733 238.199C241.733 244.6 241.733 251 241.733 257.4C241.733 258.165 241.941 258.374 242.704 258.304C243.606 258.235 244.508 258.235 245.479 258.304C246.242 258.374 246.38 258.096 246.38 257.33C246.38 250.861 246.311 244.391 246.38 237.851C246.311 235.069 245.34 233.051 242.496 232.077ZM241.594 226.164C241.525 228.529 240.207 229.782 237.849 229.851C236.808 229.921 235.768 229.921 234.797 229.851C234.589 229.851 234.173 229.503 234.173 229.364C234.173 224.425 234.173 219.486 234.173 214.546C234.173 214.546 234.173 214.477 234.242 214.338C236.115 214.338 237.988 214.268 239.93 214.338C240.901 214.338 241.664 215.172 241.664 216.146C241.664 219.486 241.733 222.825 241.594 226.164Z" fill="white"/>
</svg>
