<svg width="16" height="21" viewBox="0 0 16 21" fill="none" xmlns="http://www.w3.org/2000/svg">
<path d="M15.008 5.608H12.008V4.6C12.008 3.88 11.824 3.216 11.456 2.608C11.104 1.984 10.616 1.496 9.992 1.144C9.384 0.776 8.72 0.592 8 0.592C7.28 0.592 6.608 0.776 5.984 1.144C5.376 1.496 4.888 1.984 4.52 2.608C4.168 3.216 3.992 3.88 3.992 4.6V5.608H0.992C0.72 5.608 0.488 5.704 0.296 5.896C0.104 6.088 0.00800025 6.32 0.00800025 6.592V17.608C0.00800025 18.152 0.144 18.648 0.416 19.096C0.688 19.56 1.048 19.928 1.496 20.2C1.96 20.472 2.464 20.608 3.008 20.608H12.992C13.536 20.608 14.032 20.472 14.48 20.2C14.944 19.928 15.312 19.56 15.584 19.096C15.856 18.648 15.992 18.152 15.992 17.608V6.592C15.992 6.32 15.896 6.088 15.704 5.896C15.512 5.704 15.28 5.608 15.008 5.608ZM6.008 4.6C6.008 4.056 6.2 3.592 6.584 3.208C6.984 2.808 7.456 2.608 8 2.608C8.544 2.608 9.008 2.808 9.392 3.208C9.792 3.592 9.992 4.056 9.992 4.6V5.608H6.008V4.6ZM14 17.608C14 17.88 13.896 18.112 13.688 18.304C13.496 18.496 13.264 18.592 12.992 18.592H3.008C2.736 18.592 2.496 18.496 2.288 18.304C2.096 18.112 2 17.88 2 17.608V7.6H3.992V8.608C3.992 8.88 4.088 9.12 4.28 9.328C4.488 9.52 4.728 9.616 5 9.616C5.272 9.616 5.504 9.52 5.696 9.328C5.904 9.12 6.008 8.88 6.008 8.608V7.6H9.992V8.608C9.992 8.88 10.088 9.12 10.28 9.328C10.488 9.52 10.728 9.616 11 9.616C11.272 9.616 11.504 9.52 11.696 9.328C11.904 9.12 12.008 8.88 12.008 8.608V7.6H14V17.608Z" fill="#01002C"/>
</svg>
