<svg width="20" height="21" viewBox="0 0 20 21" fill="none" xmlns="http://www.w3.org/2000/svg">
<path d="M13.72 11.32C14.728 10.536 15.408 9.528 15.76 8.296C16.112 7.064 16.08 5.848 15.664 4.648C15.248 3.432 14.52 2.456 13.48 1.72C12.44 0.983999 11.28 0.615999 10 0.615999C8.72 0.615999 7.56 0.983999 6.52 1.72C5.48 2.456 4.752 3.432 4.336 4.648C3.92 5.848 3.888 7.064 4.24 8.296C4.592 9.528 5.272 10.536 6.28 11.32C4.568 12.008 3.152 13.088 2.032 14.56C0.928 16.016 0.272 17.656 0.0640001 19.48C0.0320001 19.752 0.104 20 0.28 20.224C0.456 20.448 0.68 20.576 0.952 20.608C1.224 20.64 1.472 20.568 1.696 20.392C1.92 20.216 2.048 19.992 2.08 19.72C2.224 18.392 2.664 17.184 3.4 16.096C4.152 15.008 5.104 14.152 6.256 13.528C7.424 12.904 8.68 12.592 10.024 12.592C11.368 12.592 12.616 12.904 13.768 13.528C14.936 14.152 15.888 15.008 16.624 16.096C17.376 17.184 17.824 18.392 17.968 19.72C18 19.976 18.112 20.184 18.304 20.344C18.496 20.52 18.72 20.608 18.976 20.608H19.072C19.344 20.576 19.568 20.448 19.744 20.224C19.92 20.016 19.992 19.776 19.96 19.504C19.752 17.664 19.088 16.016 17.968 14.56C16.848 13.088 15.432 12.008 13.72 11.32ZM10 10.6C9.28 10.6 8.608 10.424 7.984 10.072C7.376 9.704 6.888 9.216 6.52 8.608C6.168 7.984 5.992 7.312 5.992 6.592C5.992 5.872 6.168 5.208 6.52 4.6C6.888 3.976 7.376 3.488 7.984 3.136C8.608 2.768 9.28 2.584 10 2.584C10.72 2.584 11.384 2.768 11.992 3.136C12.616 3.488 13.104 3.976 13.456 4.6C13.824 5.208 14.008 5.872 14.008 6.592C14.008 7.312 13.824 7.984 13.456 8.608C13.104 9.216 12.616 9.704 11.992 10.072C11.384 10.424 10.72 10.6 10 10.6Z" fill="white"/>
</svg>
